<mxfile host="app.diagrams.net" modified="2022-12-02T08:16:11.603Z" agent="5.0 (Windows NT 10.0; Win64; x64) AppleWebKit/537.36 (KHTML, like Gecko) Chrome/107.0.0.0 Safari/537.36 Edg/107.0.1418.62" version="20.6.0" etag="kyyERNp9OYfr_sdubb51" type="github">
  <diagram id="Aci28Pt43o9ZYQM7Z3mP" name="第 1 页">
    <mxGraphModel dx="1038" dy="579" grid="1" gridSize="10" guides="1" tooltips="1" connect="1" arrows="1" fold="1" page="1" pageScale="1" pageWidth="827" pageHeight="1169" math="0" shadow="0">
      <root>
        <mxCell id="0" />
        <mxCell id="1" parent="0" />
        <mxCell id="VKLMM02qcexM3qi8hfcf-1" value="基础设施" style="rounded=1;whiteSpace=wrap;html=1;strokeColor=default;strokeWidth=1;fontSize=18;dashed=1;verticalAlign=top;" vertex="1" parent="1">
          <mxGeometry x="480" y="370" width="130" height="370" as="geometry" />
        </mxCell>
        <mxCell id="VKLMM02qcexM3qi8hfcf-2" value="BaaS" style="rounded=1;whiteSpace=wrap;html=1;strokeColor=default;strokeWidth=1;fontSize=18;dashed=1;verticalAlign=top;" vertex="1" parent="1">
          <mxGeometry x="330" y="370" width="130" height="370" as="geometry" />
        </mxCell>
        <mxCell id="VKLMM02qcexM3qi8hfcf-3" value="" style="strokeWidth=1;html=1;shape=mxgraph.flowchart.annotation_1;align=left;pointerEvents=1;fontSize=16;strokeColor=default;" vertex="1" parent="1">
          <mxGeometry x="310" y="390" width="10" height="340" as="geometry" />
        </mxCell>
        <mxCell id="VKLMM02qcexM3qi8hfcf-4" value="" style="endArrow=none;html=1;rounded=0;fontSize=16;" edge="1" parent="1">
          <mxGeometry width="50" height="50" relative="1" as="geometry">
            <mxPoint x="250" y="440" as="sourcePoint" />
            <mxPoint x="310" y="440" as="targetPoint" />
          </mxGeometry>
        </mxCell>
        <mxCell id="VKLMM02qcexM3qi8hfcf-5" value="对象存储" style="rounded=1;whiteSpace=wrap;html=1;strokeColor=default;strokeWidth=1;fontSize=16;" vertex="1" parent="1">
          <mxGeometry x="340" y="410" width="110" height="50" as="geometry" />
        </mxCell>
        <mxCell id="VKLMM02qcexM3qi8hfcf-6" value="消息服务" style="rounded=1;whiteSpace=wrap;html=1;strokeColor=default;strokeWidth=1;fontSize=16;" vertex="1" parent="1">
          <mxGeometry x="340" y="613" width="110" height="50" as="geometry" />
        </mxCell>
        <mxCell id="VKLMM02qcexM3qi8hfcf-7" value="缓存服务" style="rounded=1;whiteSpace=wrap;html=1;strokeColor=default;strokeWidth=1;fontSize=16;" vertex="1" parent="1">
          <mxGeometry x="340" y="546" width="110" height="50" as="geometry" />
        </mxCell>
        <mxCell id="VKLMM02qcexM3qi8hfcf-8" value="数据库" style="rounded=1;whiteSpace=wrap;html=1;strokeColor=default;strokeWidth=1;fontSize=16;" vertex="1" parent="1">
          <mxGeometry x="340" y="478" width="110" height="50" as="geometry" />
        </mxCell>
        <mxCell id="VKLMM02qcexM3qi8hfcf-9" value="物理机" style="rounded=1;whiteSpace=wrap;html=1;strokeColor=default;strokeWidth=1;fontSize=16;" vertex="1" parent="1">
          <mxGeometry x="490" y="410" width="110" height="50" as="geometry" />
        </mxCell>
        <mxCell id="VKLMM02qcexM3qi8hfcf-10" value="……" style="rounded=1;whiteSpace=wrap;html=1;strokeColor=default;strokeWidth=1;fontSize=16;" vertex="1" parent="1">
          <mxGeometry x="490" y="680" width="110" height="50" as="geometry" />
        </mxCell>
        <mxCell id="VKLMM02qcexM3qi8hfcf-11" value="网络" style="rounded=1;whiteSpace=wrap;html=1;strokeColor=default;strokeWidth=1;fontSize=16;" vertex="1" parent="1">
          <mxGeometry x="490" y="613" width="110" height="50" as="geometry" />
        </mxCell>
        <mxCell id="VKLMM02qcexM3qi8hfcf-12" value="存储" style="rounded=1;whiteSpace=wrap;html=1;strokeColor=default;strokeWidth=1;fontSize=16;" vertex="1" parent="1">
          <mxGeometry x="490" y="478" width="110" height="50" as="geometry" />
        </mxCell>
        <mxCell id="VKLMM02qcexM3qi8hfcf-13" value="数据库" style="rounded=1;whiteSpace=wrap;html=1;strokeColor=default;strokeWidth=1;fontSize=16;" vertex="1" parent="1">
          <mxGeometry x="490" y="545" width="110" height="50" as="geometry" />
        </mxCell>
        <mxCell id="VKLMM02qcexM3qi8hfcf-14" value="……" style="rounded=1;whiteSpace=wrap;html=1;strokeColor=default;strokeWidth=1;fontSize=16;" vertex="1" parent="1">
          <mxGeometry x="340" y="680" width="110" height="50" as="geometry" />
        </mxCell>
        <mxCell id="VKLMM02qcexM3qi8hfcf-15" value="数据湖" style="rounded=1;whiteSpace=wrap;html=1;fontSize=18;verticalAlign=top;" vertex="1" parent="1">
          <mxGeometry x="95" y="370" width="170" height="370" as="geometry" />
        </mxCell>
        <mxCell id="VKLMM02qcexM3qi8hfcf-16" value="Severless平台" style="rounded=1;whiteSpace=wrap;html=1;fontSize=16;" vertex="1" parent="1">
          <mxGeometry x="110" y="410" width="140" height="50" as="geometry" />
        </mxCell>
        <mxCell id="VKLMM02qcexM3qi8hfcf-17" value="数据湖仓" style="rounded=1;whiteSpace=wrap;html=1;fontSize=16;" vertex="1" parent="1">
          <mxGeometry x="110" y="478" width="140" height="50" as="geometry" />
        </mxCell>
        <mxCell id="VKLMM02qcexM3qi8hfcf-18" value="AI" style="rounded=1;whiteSpace=wrap;html=1;fontSize=16;" vertex="1" parent="1">
          <mxGeometry x="110" y="613" width="140" height="50" as="geometry" />
        </mxCell>
        <mxCell id="VKLMM02qcexM3qi8hfcf-19" value="BI" style="rounded=1;whiteSpace=wrap;html=1;fontSize=16;" vertex="1" parent="1">
          <mxGeometry x="110" y="545" width="140" height="50" as="geometry" />
        </mxCell>
        <mxCell id="VKLMM02qcexM3qi8hfcf-20" value="风险集市" style="rounded=1;whiteSpace=wrap;html=1;fontSize=16;" vertex="1" parent="1">
          <mxGeometry x="110" y="680" width="140" height="50" as="geometry" />
        </mxCell>
      </root>
    </mxGraphModel>
  </diagram>
</mxfile>
